<svg xmlns="http://www.w3.org/2000/svg" xmlns:xlink="http://www.w3.org/1999/xlink" width="500" zoomAndPan="magnify" viewBox="0 0 375 374.999991" height="500" preserveAspectRatio="xMidYMid meet" version="1.0"><defs><g/><clipPath id="c47da8ae2f"><path d="M 288.898438 133.367188 L 301.472656 133.367188 L 301.472656 145.941406 L 288.898438 145.941406 Z M 288.898438 133.367188 " clip-rule="nonzero"/></clipPath><clipPath id="9f773c26c6"><path d="M 295.1875 133.367188 C 291.714844 133.367188 288.898438 136.179688 288.898438 139.652344 C 288.898438 143.125 291.714844 145.941406 295.1875 145.941406 C 298.660156 145.941406 301.472656 143.125 301.472656 139.652344 C 301.472656 136.179688 298.660156 133.367188 295.1875 133.367188 Z M 295.1875 133.367188 " clip-rule="nonzero"/></clipPath></defs><rect x="-37.5" width="450" fill="#ffffff" y="-37.499999" height="449.999989" fill-opacity="1"/><rect x="-37.5" width="450" fill="#fdf2e3" y="-37.499999" height="449.999989" fill-opacity="1"/><g fill="#da6319" fill-opacity="1"><g transform="translate(70.057182, 217.543344)"><g><path d="M 5.140625 -4.03125 C 3.503906 -5.59375 2.476562 -7.453125 2.0625 -9.609375 C 1.65625 -11.773438 1.546875 -14.015625 1.734375 -16.328125 C 1.921875 -18.640625 2.050781 -20.800781 2.125 -22.8125 L 2.796875 -46.75 C 2.867188 -49.363281 2.90625 -52.007812 2.90625 -54.6875 C 2.90625 -57.375 3.050781 -59.96875 3.34375 -62.46875 C 3.644531 -64.96875 4.28125 -67.1875 5.25 -69.125 C 6.21875 -71.0625 7.707031 -72.550781 9.71875 -73.59375 C 11.738281 -74.632812 14.460938 -75.082031 17.890625 -74.9375 C 19.679688 -74.863281 21.863281 -74.804688 24.4375 -74.765625 C 27.007812 -74.734375 29.691406 -74.625 32.484375 -74.4375 C 35.285156 -74.25 37.988281 -73.851562 40.59375 -73.25 C 43.207031 -72.65625 45.484375 -71.707031 47.421875 -70.40625 C 49.359375 -69.101562 50.703125 -67.332031 51.453125 -65.09375 C 52.492188 -62.113281 52.4375 -59.785156 51.28125 -58.109375 C 50.125 -56.429688 48.425781 -55.238281 46.1875 -54.53125 C 43.957031 -53.820312 41.59375 -53.410156 39.09375 -53.296875 C 36.59375 -53.179688 34.445312 -53.195312 32.65625 -53.34375 C 31.46875 -53.425781 30.085938 -53.539062 28.515625 -53.6875 C 26.953125 -53.832031 25.5 -53.789062 24.15625 -53.5625 C 22.8125 -53.34375 21.804688 -52.75 21.140625 -51.78125 C 20.097656 -50.289062 19.722656 -49.0625 20.015625 -48.09375 C 20.316406 -47.125 21.023438 -46.378906 22.140625 -45.859375 C 23.265625 -45.335938 24.457031 -45.039062 25.71875 -44.96875 C 28.40625 -44.738281 30.789062 -44.34375 32.875 -43.78125 C 34.96875 -43.226562 36.515625 -42.164062 37.515625 -40.59375 C 38.523438 -39.03125 38.769531 -36.644531 38.25 -33.4375 C 37.5 -28.894531 35.6875 -25.691406 32.8125 -23.828125 C 29.945312 -21.960938 26.28125 -21.738281 21.8125 -23.15625 C 21.8125 -21.507812 21.695312 -19.378906 21.46875 -16.765625 C 21.25 -14.160156 20.800781 -11.550781 20.125 -8.9375 C 19.457031 -6.332031 18.488281 -4.171875 17.21875 -2.453125 C 15.957031 -0.742188 14.335938 0.0859375 12.359375 0.046875 C 10.378906 0.015625 7.972656 -1.34375 5.140625 -4.03125 Z M 5.140625 -4.03125 "/></g></g></g><g fill="#da6319" fill-opacity="1"><g transform="translate(118.820774, 217.543344)"><g><path d="M 43.28125 -1.796875 C 41.195312 -0.671875 38.738281 -0.0703125 35.90625 0 C 33.070312 0.0703125 30.195312 -0.128906 27.28125 -0.609375 C 24.375 -1.097656 21.804688 -1.53125 19.578125 -1.90625 C 14.722656 -2.71875 10.75 -4.316406 7.65625 -6.703125 C 4.5625 -9.097656 2.753906 -12.863281 2.234375 -18 C 1.785156 -22.625 1.597656 -27.394531 1.671875 -32.3125 C 1.753906 -37.238281 1.832031 -42.015625 1.90625 -46.640625 C 1.90625 -49.242188 1.941406 -52.128906 2.015625 -55.296875 C 2.085938 -58.472656 2.476562 -61.550781 3.1875 -64.53125 C 3.894531 -67.507812 5.144531 -70.082031 6.9375 -72.25 C 8.875 -74.5625 10.976562 -75.828125 13.25 -76.046875 C 15.53125 -76.273438 17.617188 -75.695312 19.515625 -74.3125 C 21.421875 -72.9375 22.78125 -70.90625 23.59375 -68.21875 C 24.71875 -65.019531 25.351562 -61.570312 25.5 -57.875 C 25.644531 -54.1875 25.601562 -50.492188 25.375 -46.796875 C 25.15625 -43.109375 24.972656 -39.585938 24.828125 -36.234375 C 24.753906 -35.046875 24.625 -33.757812 24.4375 -32.375 C 24.25 -31 24.226562 -29.675781 24.375 -28.40625 C 24.601562 -26.84375 24.753906 -25.875 24.828125 -25.5 C 24.898438 -25.125 25.175781 -24.992188 25.65625 -25.109375 C 26.144531 -25.222656 27.0625 -25.128906 28.40625 -24.828125 C 30.269531 -24.523438 32.078125 -24.335938 33.828125 -24.265625 C 35.585938 -24.191406 37.304688 -24.023438 38.984375 -23.765625 C 40.660156 -23.503906 42.316406 -22.816406 43.953125 -21.703125 C 46.265625 -20.203125 47.773438 -18.128906 48.484375 -15.484375 C 49.191406 -12.835938 49.113281 -10.226562 48.25 -7.65625 C 47.394531 -5.082031 45.738281 -3.128906 43.28125 -1.796875 Z M 43.28125 -1.796875 "/></g></g></g><g fill="#da6319" fill-opacity="1"><g transform="translate(166.018551, 217.543344)"><g><path d="M 8.609375 -0.671875 C 5.703125 -1.492188 3.765625 -2.890625 2.796875 -4.859375 C 1.828125 -6.835938 1.453125 -9.113281 1.671875 -11.6875 C 1.898438 -14.257812 2.367188 -16.832031 3.078125 -19.40625 C 3.785156 -21.976562 4.398438 -24.304688 4.921875 -26.390625 C 6.265625 -31.910156 7.753906 -37.410156 9.390625 -42.890625 C 11.035156 -48.367188 12.753906 -53.832031 14.546875 -59.28125 C 16.035156 -63.90625 18.195312 -67.648438 21.03125 -70.515625 C 23.863281 -73.390625 27.890625 -74.898438 33.109375 -75.046875 C 36.015625 -75.117188 38.398438 -74.425781 40.265625 -72.96875 C 42.128906 -71.519531 43.640625 -69.617188 44.796875 -67.265625 C 45.953125 -64.921875 46.9375 -62.441406 47.75 -59.828125 C 48.570312 -57.222656 49.359375 -54.800781 50.109375 -52.5625 L 63.1875 -15.765625 C 64.082031 -13.304688 64.492188 -11.109375 64.421875 -9.171875 C 64.347656 -7.234375 63.226562 -5.367188 61.0625 -3.578125 C 58.90625 -1.859375 56.816406 -1.070312 54.796875 -1.21875 C 52.785156 -1.375 51 -2.609375 49.4375 -4.921875 C 48.6875 -6.035156 48.066406 -7.453125 47.578125 -9.171875 C 47.097656 -10.890625 46.578125 -12.566406 46.015625 -14.203125 C 45.460938 -15.847656 44.664062 -17.078125 43.625 -17.890625 C 43.46875 -18.046875 42.550781 -18.195312 40.875 -18.34375 C 39.195312 -18.488281 37.257812 -18.617188 35.0625 -18.734375 C 32.863281 -18.847656 30.847656 -18.882812 29.015625 -18.84375 C 27.191406 -18.8125 26.054688 -18.609375 25.609375 -18.234375 C 24.566406 -17.335938 23.835938 -15.921875 23.421875 -13.984375 C 23.015625 -12.046875 22.644531 -10.050781 22.3125 -8 C 21.976562 -5.945312 21.328125 -4.320312 20.359375 -3.125 C 19.015625 -1.488281 17.222656 -0.519531 14.984375 -0.21875 C 12.742188 0.0703125 10.617188 -0.078125 8.609375 -0.671875 Z M 30.75 -34.109375 C 31.800781 -34.265625 32.828125 -34.453125 33.828125 -34.671875 C 34.835938 -34.890625 35.828125 -35.078125 36.796875 -35.234375 C 36.273438 -36.722656 35.769531 -38.210938 35.28125 -39.703125 C 34.800781 -41.191406 34.335938 -42.679688 33.890625 -44.171875 C 33.367188 -42.535156 32.847656 -40.878906 32.328125 -39.203125 C 31.804688 -37.523438 31.28125 -35.828125 30.75 -34.109375 Z M 30.75 -34.109375 "/></g></g></g><g fill="#da6319" fill-opacity="1"><g transform="translate(228.874466, 217.543344)"><g><path d="M 22.484375 -2.578125 C 20.910156 -4.066406 19.601562 -5.816406 18.5625 -7.828125 C 17.519531 -9.835938 16.625 -11.941406 15.875 -14.140625 C 15.132812 -16.347656 14.316406 -18.382812 13.421875 -20.25 C 12.898438 -21.363281 12.078125 -23.019531 10.953125 -25.21875 C 9.835938 -27.414062 8.644531 -29.910156 7.375 -32.703125 C 6.113281 -35.503906 4.976562 -38.394531 3.96875 -41.375 C 2.957031 -44.363281 2.25 -47.234375 1.84375 -49.984375 C 1.4375 -52.742188 1.566406 -55.148438 2.234375 -57.203125 C 2.910156 -59.253906 4.328125 -60.726562 6.484375 -61.625 C 8.492188 -62.519531 10.410156 -62.367188 12.234375 -61.171875 C 14.066406 -59.984375 15.785156 -58.140625 17.390625 -55.640625 C 18.992188 -53.140625 20.484375 -50.320312 21.859375 -47.1875 C 23.242188 -44.0625 24.457031 -40.929688 25.5 -37.796875 C 26.539062 -34.671875 27.429688 -31.875 28.171875 -29.40625 C 28.921875 -26.945312 29.484375 -25.195312 29.859375 -24.15625 C 30.378906 -25.425781 31.085938 -27.382812 31.984375 -30.03125 C 32.878906 -32.675781 33.921875 -35.617188 35.109375 -38.859375 C 36.304688 -42.109375 37.671875 -45.296875 39.203125 -48.421875 C 40.734375 -51.554688 42.390625 -54.296875 44.171875 -56.640625 C 45.960938 -58.992188 47.882812 -60.578125 49.9375 -61.390625 C 51.988281 -62.210938 54.171875 -61.878906 56.484375 -60.390625 C 59.015625 -58.753906 60.519531 -56.570312 61 -53.84375 C 61.488281 -51.125 61.265625 -48.066406 60.328125 -44.671875 C 59.398438 -41.285156 58.039062 -37.800781 56.25 -34.21875 C 54.46875 -30.644531 52.515625 -27.195312 50.390625 -23.875 C 48.265625 -20.5625 46.269531 -17.578125 44.40625 -14.921875 C 42.539062 -12.273438 41.085938 -10.207031 40.046875 -8.71875 C 38.703125 -6.707031 37.113281 -4.84375 35.28125 -3.125 C 33.457031 -1.414062 31.460938 -0.375 29.296875 0 C 27.140625 0.375 24.867188 -0.484375 22.484375 -2.578125 Z M 22.484375 -2.578125 "/></g></g></g><g fill="#da6319" fill-opacity="1"><g transform="translate(288.375054, 217.543344)"><g><path d="M 2.234375 -3.25 C 1.566406 -4.882812 1.53125 -6.503906 2.125 -8.109375 C 2.71875 -9.710938 3.703125 -11.015625 5.078125 -12.015625 C 6.460938 -13.023438 7.921875 -13.507812 9.453125 -13.46875 C 10.984375 -13.4375 12.304688 -12.5625 13.421875 -10.84375 C 14.609375 -9.726562 15.09375 -8.5 14.875 -7.15625 C 14.65625 -5.8125 14.039062 -4.539062 13.03125 -3.34375 C 12.019531 -2.15625 10.804688 -1.242188 9.390625 -0.609375 C 7.972656 0.015625 6.613281 0.160156 5.3125 -0.171875 C 4.007812 -0.503906 2.984375 -1.53125 2.234375 -3.25 Z M 2.234375 -3.25 "/></g></g></g><g clip-path="url(#c47da8ae2f)"><g clip-path="url(#9f773c26c6)"><path stroke-linecap="butt" transform="matrix(0.75, 0, 0, 0.75, 288.900074, 133.366062)" fill="none" stroke-linejoin="miter" d="M 8.383235 0.00150114 C 3.753026 0.00150114 -0.00218244 3.751501 -0.00218244 8.38171 C -0.00218244 13.011919 3.753026 16.767127 8.383235 16.767127 C 13.013443 16.767127 16.763444 13.011919 16.763444 8.38171 C 16.763444 3.751501 13.013443 0.00150114 8.383235 0.00150114 Z M 8.383235 0.00150114 " stroke="#da6319" stroke-width="4" stroke-opacity="1" stroke-miterlimit="4"/></g></g><g fill="#da6319" fill-opacity="1"><g transform="translate(128.227657, 239.596098)"><g><path d="M 1.84375 0.078125 C 1.582031 0.078125 1.375 0 1.21875 -0.15625 C 1.070312 -0.3125 1 -0.519531 1 -0.78125 L 1 -8.46875 C 1 -8.726562 1.070312 -8.925781 1.21875 -9.0625 C 1.363281 -9.207031 1.5625 -9.28125 1.8125 -9.28125 L 6.4375 -9.28125 C 6.96875 -9.28125 7.234375 -9.050781 7.234375 -8.59375 C 7.234375 -8.144531 6.96875 -7.921875 6.4375 -7.921875 L 2.671875 -7.921875 L 2.671875 -5.390625 L 6.171875 -5.390625 C 6.703125 -5.390625 6.96875 -5.160156 6.96875 -4.703125 C 6.96875 -4.253906 6.703125 -4.03125 6.171875 -4.03125 L 2.671875 -4.03125 L 2.671875 -0.78125 C 2.671875 -0.519531 2.59375 -0.3125 2.4375 -0.15625 C 2.289062 0 2.09375 0.078125 1.84375 0.078125 Z M 1.84375 0.078125 "/></g></g></g><g fill="#da6319" fill-opacity="1"><g transform="translate(135.538041, 239.596098)"><g><path d="M 5.125 0.125 C 4.226562 0.125 3.445312 -0.0664062 2.78125 -0.453125 C 2.125 -0.847656 1.613281 -1.40625 1.25 -2.125 C 0.882812 -2.84375 0.703125 -3.679688 0.703125 -4.640625 C 0.703125 -5.609375 0.878906 -6.445312 1.234375 -7.15625 C 1.597656 -7.875 2.113281 -8.425781 2.78125 -8.8125 C 3.445312 -9.195312 4.226562 -9.390625 5.125 -9.390625 C 6.03125 -9.390625 6.8125 -9.195312 7.46875 -8.8125 C 8.132812 -8.425781 8.644531 -7.875 9 -7.15625 C 9.351562 -6.445312 9.53125 -5.609375 9.53125 -4.640625 C 9.53125 -3.679688 9.347656 -2.84375 8.984375 -2.125 C 8.628906 -1.40625 8.117188 -0.847656 7.453125 -0.453125 C 6.796875 -0.0664062 6.019531 0.125 5.125 0.125 Z M 5.125 -1.234375 C 5.976562 -1.234375 6.644531 -1.523438 7.125 -2.109375 C 7.601562 -2.703125 7.84375 -3.546875 7.84375 -4.640625 C 7.84375 -5.734375 7.601562 -6.570312 7.125 -7.15625 C 6.644531 -7.738281 5.976562 -8.03125 5.125 -8.03125 C 4.269531 -8.03125 3.601562 -7.738281 3.125 -7.15625 C 2.644531 -6.570312 2.40625 -5.734375 2.40625 -4.640625 C 2.40625 -3.546875 2.644531 -2.703125 3.125 -2.109375 C 3.601562 -1.523438 4.269531 -1.234375 5.125 -1.234375 Z M 5.125 -1.234375 "/></g></g></g><g fill="#da6319" fill-opacity="1"><g transform="translate(145.649024, 239.596098)"><g><path d="M 5.125 0.125 C 4.226562 0.125 3.445312 -0.0664062 2.78125 -0.453125 C 2.125 -0.847656 1.613281 -1.40625 1.25 -2.125 C 0.882812 -2.84375 0.703125 -3.679688 0.703125 -4.640625 C 0.703125 -5.609375 0.878906 -6.445312 1.234375 -7.15625 C 1.597656 -7.875 2.113281 -8.425781 2.78125 -8.8125 C 3.445312 -9.195312 4.226562 -9.390625 5.125 -9.390625 C 6.03125 -9.390625 6.8125 -9.195312 7.46875 -8.8125 C 8.132812 -8.425781 8.644531 -7.875 9 -7.15625 C 9.351562 -6.445312 9.53125 -5.609375 9.53125 -4.640625 C 9.53125 -3.679688 9.347656 -2.84375 8.984375 -2.125 C 8.628906 -1.40625 8.117188 -0.847656 7.453125 -0.453125 C 6.796875 -0.0664062 6.019531 0.125 5.125 0.125 Z M 5.125 -1.234375 C 5.976562 -1.234375 6.644531 -1.523438 7.125 -2.109375 C 7.601562 -2.703125 7.84375 -3.546875 7.84375 -4.640625 C 7.84375 -5.734375 7.601562 -6.570312 7.125 -7.15625 C 6.644531 -7.738281 5.976562 -8.03125 5.125 -8.03125 C 4.269531 -8.03125 3.601562 -7.738281 3.125 -7.15625 C 2.644531 -6.570312 2.40625 -5.734375 2.40625 -4.640625 C 2.40625 -3.546875 2.644531 -2.703125 3.125 -2.109375 C 3.601562 -1.523438 4.269531 -1.234375 5.125 -1.234375 Z M 5.125 -1.234375 "/></g></g></g><g fill="#da6319" fill-opacity="1"><g transform="translate(155.760005, 239.596098)"><g><path d="M 1.8125 0 C 1.5625 0 1.363281 -0.0664062 1.21875 -0.203125 C 1.070312 -0.347656 1 -0.546875 1 -0.796875 L 1 -8.46875 C 1 -8.726562 1.070312 -8.925781 1.21875 -9.0625 C 1.363281 -9.207031 1.5625 -9.28125 1.8125 -9.28125 L 4.421875 -9.28125 C 5.941406 -9.28125 7.117188 -8.875 7.953125 -8.0625 C 8.785156 -7.25 9.203125 -6.109375 9.203125 -4.640625 C 9.203125 -3.171875 8.785156 -2.03125 7.953125 -1.21875 C 7.117188 -0.40625 5.941406 0 4.421875 0 Z M 4.3125 -1.375 C 6.445312 -1.375 7.515625 -2.460938 7.515625 -4.640625 C 7.515625 -6.804688 6.445312 -7.890625 4.3125 -7.890625 L 2.703125 -7.890625 L 2.703125 -1.375 Z M 4.3125 -1.375 "/></g></g></g><g fill="#da6319" fill-opacity="1"><g transform="translate(165.54228, 239.596098)"><g/></g></g><g fill="#da6319" fill-opacity="1"><g transform="translate(168.973897, 239.596098)"><g><path d="M 9.40625 -1.015625 C 9.457031 -0.898438 9.484375 -0.785156 9.484375 -0.671875 C 9.484375 -0.472656 9.398438 -0.300781 9.234375 -0.15625 C 9.078125 -0.0195312 8.894531 0.046875 8.6875 0.046875 C 8.539062 0.046875 8.40625 0.0078125 8.28125 -0.0625 C 8.164062 -0.132812 8.070312 -0.25 8 -0.40625 L 7.203125 -2.171875 L 2.578125 -2.171875 L 1.796875 -0.40625 C 1.722656 -0.25 1.625 -0.132812 1.5 -0.0625 C 1.375 0.0078125 1.238281 0.046875 1.09375 0.046875 C 0.894531 0.046875 0.710938 -0.0195312 0.546875 -0.15625 C 0.378906 -0.300781 0.296875 -0.472656 0.296875 -0.671875 C 0.296875 -0.785156 0.320312 -0.898438 0.375 -1.015625 L 4 -8.8125 C 4.082031 -8.988281 4.203125 -9.125 4.359375 -9.21875 C 4.523438 -9.3125 4.695312 -9.359375 4.875 -9.359375 C 5.0625 -9.359375 5.234375 -9.3125 5.390625 -9.21875 C 5.554688 -9.125 5.679688 -8.988281 5.765625 -8.8125 Z M 3.15625 -3.484375 L 6.625 -3.484375 L 4.890625 -7.390625 Z M 3.15625 -3.484375 "/></g></g></g><g fill="#da6319" fill-opacity="1"><g transform="translate(178.598389, 239.596098)"><g><path d="M 8.03125 -9.34375 C 8.269531 -9.34375 8.460938 -9.265625 8.609375 -9.109375 C 8.753906 -8.953125 8.828125 -8.75 8.828125 -8.5 L 8.828125 -0.78125 C 8.828125 -0.519531 8.75 -0.3125 8.59375 -0.15625 C 8.445312 0 8.257812 0.078125 8.03125 0.078125 C 7.75 0.078125 7.53125 -0.0195312 7.375 -0.21875 L 2.578125 -6.46875 L 2.578125 -0.78125 C 2.578125 -0.519531 2.503906 -0.3125 2.359375 -0.15625 C 2.222656 0 2.035156 0.078125 1.796875 0.078125 C 1.546875 0.078125 1.347656 0 1.203125 -0.15625 C 1.066406 -0.3125 1 -0.519531 1 -0.78125 L 1 -8.5 C 1 -8.75 1.070312 -8.953125 1.21875 -9.109375 C 1.375 -9.265625 1.570312 -9.34375 1.8125 -9.34375 C 2.082031 -9.34375 2.296875 -9.238281 2.453125 -9.03125 L 7.234375 -2.8125 L 7.234375 -8.5 C 7.234375 -8.75 7.304688 -8.953125 7.453125 -9.109375 C 7.597656 -9.265625 7.789062 -9.34375 8.03125 -9.34375 Z M 8.03125 -9.34375 "/></g></g></g><g fill="#da6319" fill-opacity="1"><g transform="translate(188.288627, 239.596098)"><g><path d="M 1.8125 0 C 1.5625 0 1.363281 -0.0664062 1.21875 -0.203125 C 1.070312 -0.347656 1 -0.546875 1 -0.796875 L 1 -8.46875 C 1 -8.726562 1.070312 -8.925781 1.21875 -9.0625 C 1.363281 -9.207031 1.5625 -9.28125 1.8125 -9.28125 L 4.421875 -9.28125 C 5.941406 -9.28125 7.117188 -8.875 7.953125 -8.0625 C 8.785156 -7.25 9.203125 -6.109375 9.203125 -4.640625 C 9.203125 -3.171875 8.785156 -2.03125 7.953125 -1.21875 C 7.117188 -0.40625 5.941406 0 4.421875 0 Z M 4.3125 -1.375 C 6.445312 -1.375 7.515625 -2.460938 7.515625 -4.640625 C 7.515625 -6.804688 6.445312 -7.890625 4.3125 -7.890625 L 2.703125 -7.890625 L 2.703125 -1.375 Z M 4.3125 -1.375 "/></g></g></g><g fill="#da6319" fill-opacity="1"><g transform="translate(198.070899, 239.596098)"><g/></g></g><g fill="#da6319" fill-opacity="1"><g transform="translate(201.502512, 239.596098)"><g><path d="M 8.421875 -1.0625 C 8.523438 -0.90625 8.578125 -0.753906 8.578125 -0.609375 C 8.578125 -0.398438 8.492188 -0.226562 8.328125 -0.09375 C 8.171875 0.03125 7.984375 0.09375 7.765625 0.09375 C 7.617188 0.09375 7.484375 0.0625 7.359375 0 C 7.234375 -0.0703125 7.125 -0.171875 7.03125 -0.296875 L 5.28125 -2.953125 C 5.113281 -3.234375 4.929688 -3.429688 4.734375 -3.546875 C 4.535156 -3.660156 4.273438 -3.71875 3.953125 -3.71875 L 2.671875 -3.71875 L 2.671875 -0.78125 C 2.671875 -0.507812 2.59375 -0.296875 2.4375 -0.140625 C 2.289062 0.00390625 2.09375 0.078125 1.84375 0.078125 C 1.582031 0.078125 1.375 0.00390625 1.21875 -0.140625 C 1.070312 -0.296875 1 -0.507812 1 -0.78125 L 1 -8.46875 C 1 -8.726562 1.070312 -8.925781 1.21875 -9.0625 C 1.363281 -9.207031 1.5625 -9.28125 1.8125 -9.28125 L 5.109375 -9.28125 C 6.160156 -9.28125 6.957031 -9.046875 7.5 -8.578125 C 8.050781 -8.109375 8.328125 -7.425781 8.328125 -6.53125 C 8.328125 -5.8125 8.125 -5.222656 7.71875 -4.765625 C 7.3125 -4.304688 6.734375 -4.007812 5.984375 -3.875 C 6.242188 -3.8125 6.46875 -3.703125 6.65625 -3.546875 C 6.851562 -3.390625 7.039062 -3.171875 7.21875 -2.890625 Z M 4.875 -5.03125 C 5.507812 -5.03125 5.972656 -5.148438 6.265625 -5.390625 C 6.566406 -5.628906 6.71875 -6 6.71875 -6.5 C 6.71875 -7.007812 6.566406 -7.378906 6.265625 -7.609375 C 5.972656 -7.835938 5.507812 -7.953125 4.875 -7.953125 L 2.65625 -7.953125 L 2.65625 -5.03125 Z M 4.875 -5.03125 "/></g></g></g><g fill="#da6319" fill-opacity="1"><g transform="translate(210.509035, 239.596098)"><g><path d="M 1.8125 0 C 1.5625 0 1.363281 -0.0664062 1.21875 -0.203125 C 1.070312 -0.347656 1 -0.546875 1 -0.796875 L 1 -8.46875 C 1 -8.726562 1.070312 -8.925781 1.21875 -9.0625 C 1.363281 -9.207031 1.5625 -9.28125 1.8125 -9.28125 L 6.5625 -9.28125 C 6.820312 -9.28125 7.019531 -9.222656 7.15625 -9.109375 C 7.300781 -8.992188 7.375 -8.832031 7.375 -8.625 C 7.375 -8.394531 7.300781 -8.222656 7.15625 -8.109375 C 7.019531 -7.992188 6.820312 -7.9375 6.5625 -7.9375 L 2.65625 -7.9375 L 2.65625 -5.375 L 6.296875 -5.375 C 6.554688 -5.375 6.753906 -5.316406 6.890625 -5.203125 C 7.035156 -5.085938 7.109375 -4.921875 7.109375 -4.703125 C 7.109375 -4.492188 7.035156 -4.332031 6.890625 -4.21875 C 6.753906 -4.101562 6.554688 -4.046875 6.296875 -4.046875 L 2.65625 -4.046875 L 2.65625 -1.34375 L 6.5625 -1.34375 C 6.820312 -1.34375 7.019531 -1.28125 7.15625 -1.15625 C 7.300781 -1.039062 7.375 -0.875 7.375 -0.65625 C 7.375 -0.445312 7.300781 -0.285156 7.15625 -0.171875 C 7.019531 -0.0546875 6.820312 0 6.5625 0 Z M 1.8125 0 "/></g></g></g><g fill="#da6319" fill-opacity="1"><g transform="translate(218.121827, 239.596098)"><g><path d="M 5.140625 0.125 C 4.242188 0.125 3.460938 -0.0664062 2.796875 -0.453125 C 2.128906 -0.847656 1.613281 -1.40625 1.25 -2.125 C 0.882812 -2.84375 0.703125 -3.679688 0.703125 -4.640625 C 0.703125 -5.609375 0.882812 -6.445312 1.25 -7.15625 C 1.613281 -7.875 2.128906 -8.425781 2.796875 -8.8125 C 3.460938 -9.195312 4.242188 -9.390625 5.140625 -9.390625 C 5.722656 -9.390625 6.265625 -9.300781 6.765625 -9.125 C 7.273438 -8.957031 7.726562 -8.710938 8.125 -8.390625 C 8.238281 -8.304688 8.316406 -8.210938 8.359375 -8.109375 C 8.410156 -8.015625 8.4375 -7.898438 8.4375 -7.765625 C 8.4375 -7.566406 8.382812 -7.398438 8.28125 -7.265625 C 8.175781 -7.140625 8.046875 -7.078125 7.890625 -7.078125 C 7.710938 -7.078125 7.535156 -7.140625 7.359375 -7.265625 C 6.972656 -7.546875 6.617188 -7.738281 6.296875 -7.84375 C 5.972656 -7.957031 5.613281 -8.015625 5.21875 -8.015625 C 4.3125 -8.015625 3.625 -7.726562 3.15625 -7.15625 C 2.6875 -6.582031 2.453125 -5.742188 2.453125 -4.640625 C 2.453125 -3.523438 2.6875 -2.679688 3.15625 -2.109375 C 3.625 -1.546875 4.3125 -1.265625 5.21875 -1.265625 C 5.59375 -1.265625 5.941406 -1.320312 6.265625 -1.4375 C 6.585938 -1.550781 6.953125 -1.742188 7.359375 -2.015625 C 7.441406 -2.066406 7.523438 -2.109375 7.609375 -2.140625 C 7.703125 -2.179688 7.796875 -2.203125 7.890625 -2.203125 C 8.046875 -2.203125 8.175781 -2.132812 8.28125 -2 C 8.382812 -1.863281 8.4375 -1.703125 8.4375 -1.515625 C 8.4375 -1.378906 8.410156 -1.257812 8.359375 -1.15625 C 8.316406 -1.0625 8.238281 -0.96875 8.125 -0.875 C 7.726562 -0.550781 7.273438 -0.300781 6.765625 -0.125 C 6.265625 0.0390625 5.722656 0.125 5.140625 0.125 Z M 5.140625 0.125 "/></g></g></g><g fill="#da6319" fill-opacity="1"><g transform="translate(226.904824, 239.596098)"><g><path d="M 1.84375 0.078125 C 1.582031 0.078125 1.375 0 1.21875 -0.15625 C 1.070312 -0.3125 1 -0.519531 1 -0.78125 L 1 -8.5 C 1 -8.75 1.070312 -8.953125 1.21875 -9.109375 C 1.375 -9.265625 1.582031 -9.34375 1.84375 -9.34375 C 2.101562 -9.34375 2.3125 -9.265625 2.46875 -9.109375 C 2.625 -8.953125 2.703125 -8.75 2.703125 -8.5 L 2.703125 -0.78125 C 2.703125 -0.519531 2.625 -0.3125 2.46875 -0.15625 C 2.3125 0 2.101562 0.078125 1.84375 0.078125 Z M 1.84375 0.078125 "/></g></g></g><g fill="#da6319" fill-opacity="1"><g transform="translate(230.467919, 239.596098)"><g><path d="M 1.84375 0.078125 C 1.582031 0.078125 1.375 0.00390625 1.21875 -0.140625 C 1.070312 -0.296875 1 -0.507812 1 -0.78125 L 1 -8.46875 C 1 -8.726562 1.070312 -8.925781 1.21875 -9.0625 C 1.363281 -9.207031 1.5625 -9.28125 1.8125 -9.28125 L 5.046875 -9.28125 C 6.035156 -9.28125 6.804688 -9.03125 7.359375 -8.53125 C 7.921875 -8.03125 8.203125 -7.335938 8.203125 -6.453125 C 8.203125 -5.554688 7.921875 -4.859375 7.359375 -4.359375 C 6.804688 -3.859375 6.035156 -3.609375 5.046875 -3.609375 L 2.703125 -3.609375 L 2.703125 -0.78125 C 2.703125 -0.507812 2.625 -0.296875 2.46875 -0.140625 C 2.3125 0.00390625 2.101562 0.078125 1.84375 0.078125 Z M 4.84375 -4.90625 C 6.007812 -4.90625 6.59375 -5.414062 6.59375 -6.4375 C 6.59375 -7.445312 6.007812 -7.953125 4.84375 -7.953125 L 2.703125 -7.953125 L 2.703125 -4.90625 Z M 4.84375 -4.90625 "/></g></g></g><g fill="#da6319" fill-opacity="1"><g transform="translate(239.01424, 239.596098)"><g><path d="M 1.8125 0 C 1.5625 0 1.363281 -0.0664062 1.21875 -0.203125 C 1.070312 -0.347656 1 -0.546875 1 -0.796875 L 1 -8.46875 C 1 -8.726562 1.070312 -8.925781 1.21875 -9.0625 C 1.363281 -9.207031 1.5625 -9.28125 1.8125 -9.28125 L 6.5625 -9.28125 C 6.820312 -9.28125 7.019531 -9.222656 7.15625 -9.109375 C 7.300781 -8.992188 7.375 -8.832031 7.375 -8.625 C 7.375 -8.394531 7.300781 -8.222656 7.15625 -8.109375 C 7.019531 -7.992188 6.820312 -7.9375 6.5625 -7.9375 L 2.65625 -7.9375 L 2.65625 -5.375 L 6.296875 -5.375 C 6.554688 -5.375 6.753906 -5.316406 6.890625 -5.203125 C 7.035156 -5.085938 7.109375 -4.921875 7.109375 -4.703125 C 7.109375 -4.492188 7.035156 -4.332031 6.890625 -4.21875 C 6.753906 -4.101562 6.554688 -4.046875 6.296875 -4.046875 L 2.65625 -4.046875 L 2.65625 -1.34375 L 6.5625 -1.34375 C 6.820312 -1.34375 7.019531 -1.28125 7.15625 -1.15625 C 7.300781 -1.039062 7.375 -0.875 7.375 -0.65625 C 7.375 -0.445312 7.300781 -0.285156 7.15625 -0.171875 C 7.019531 -0.0546875 6.820312 0 6.5625 0 Z M 1.8125 0 "/></g></g></g><g fill="#da6319" fill-opacity="1"><g transform="translate(292.761058, 141.029792)"><g><path d="M 0.8125 0.046875 C 0.664062 0.046875 0.550781 0.0078125 0.46875 -0.0625 C 0.394531 -0.144531 0.359375 -0.257812 0.359375 -0.40625 L 0.359375 -3.453125 C 0.359375 -3.609375 0.398438 -3.722656 0.484375 -3.796875 C 0.566406 -3.878906 0.6875 -3.921875 0.84375 -3.921875 C 0.96875 -3.921875 1.066406 -3.894531 1.140625 -3.84375 C 1.222656 -3.789062 1.296875 -3.707031 1.359375 -3.59375 L 2.4375 -1.65625 L 3.515625 -3.59375 C 3.578125 -3.707031 3.644531 -3.789062 3.71875 -3.84375 C 3.800781 -3.894531 3.90625 -3.921875 4.03125 -3.921875 C 4.175781 -3.921875 4.285156 -3.878906 4.359375 -3.796875 C 4.441406 -3.722656 4.484375 -3.609375 4.484375 -3.453125 L 4.484375 -0.40625 C 4.484375 -0.257812 4.441406 -0.144531 4.359375 -0.0625 C 4.285156 0.0078125 4.175781 0.046875 4.03125 0.046875 C 3.882812 0.046875 3.769531 0.0078125 3.6875 -0.0625 C 3.613281 -0.144531 3.578125 -0.257812 3.578125 -0.40625 L 3.578125 -2.09375 L 2.8125 -0.765625 C 2.757812 -0.679688 2.703125 -0.617188 2.640625 -0.578125 C 2.585938 -0.535156 2.515625 -0.515625 2.421875 -0.515625 C 2.328125 -0.515625 2.25 -0.535156 2.1875 -0.578125 C 2.132812 -0.617188 2.082031 -0.679688 2.03125 -0.765625 L 1.265625 -2.078125 L 1.265625 -0.40625 C 1.265625 -0.257812 1.226562 -0.144531 1.15625 -0.0625 C 1.082031 0.0078125 0.96875 0.046875 0.8125 0.046875 Z M 0.8125 0.046875 "/></g></g></g></svg>